<svg xmlns="http://www.w3.org/2000/svg" width="103" height="103" viewBox="0 0 103 103" fill="none">
  <path d="M85.8335 85.8333V86.3333H86.3335V85.8333H85.8335ZM64.7287 64.0215C64.5335 63.8262 64.2169 63.8262 64.0216 64.0215C63.8263 64.2167 63.8263 64.5333 64.0216 64.7286L64.7287 64.0215ZM85.3335 60.0833V85.8333H86.3335V60.0833H85.3335ZM85.8335 85.3333H60.0835V86.3333H85.8335V85.3333ZM86.187 85.4798L64.7287 64.0215L64.0216 64.7286L85.4799 86.1869L86.187 85.4798Z" fill="#98A4A4"/>
  <path d="M17.1665 85.8333H16.6665V86.3333H17.1665V85.8333ZM38.9784 64.7286C39.1737 64.5333 39.1737 64.2167 38.9784 64.0215C38.7831 63.8262 38.4665 63.8262 38.2713 64.0215L38.9784 64.7286ZM16.6665 60.0833V85.8333H17.6665V60.0833H16.6665ZM17.1665 86.3333H42.9165V85.3333H17.1665V86.3333ZM17.5201 86.1869L38.9784 64.7286L38.2713 64.0215L16.813 85.4798L17.5201 86.1869Z" fill="#98A4A4"/>
  <path d="M85.8335 17.1667H86.3335V16.6667H85.8335V17.1667ZM64.0216 38.2714C63.8263 38.4667 63.8263 38.7833 64.0216 38.9785C64.2169 39.1738 64.5335 39.1738 64.7287 38.9785L64.0216 38.2714ZM86.3335 42.9167V17.1667H85.3335V42.9167H86.3335ZM85.8335 16.6667H60.0835V17.6667H85.8335V16.6667ZM85.4799 16.8131L64.0216 38.2714L64.7287 38.9785L86.187 17.5202L85.4799 16.8131Z" fill="#98A4A4"/>
  <path d="M17.1665 17.1667V16.6667H16.6665V17.1667H17.1665ZM38.2713 38.9785C38.4665 39.1738 38.7831 39.1738 38.9784 38.9785C39.1737 38.7833 39.1737 38.4667 38.9784 38.2714L38.2713 38.9785ZM17.6665 42.9167V17.1667H16.6665V42.9167H17.6665ZM17.1665 17.6667H42.9165V16.6667H17.1665V17.6667ZM16.813 17.5202L38.2713 38.9785L38.9784 38.2714L17.5201 16.8131L16.813 17.5202Z" fill="#98A4A4"/>
</svg>